# xmcd
#
# Track frame offsets:
#	150
#	10435
#	26100
#	47292
#	61975
#	72632
#	83304
#	98829
#	115732
#	123097
#	138265
#	153062
#
# Disc length: 2206 seconds
#
# Revision: 1
# Processed by: cddbd v1.5.1PL2 Copyright (c) Steve Scherf et al.
# Submitted via: audiograbber 1.83.01
#
DISCID=8c089c0c
DTITLE=The Sons Of Tennessee - The West Is A Cowboy's Home
DYEAR=1900
DGENRE=Country
TTITLE0=The West Is A Cowboy's Home
TTITLE1=Underneath A Western Sky
TTITLE2=Canton del Diablo
TTITLE3=Everlasting Hills Of Oklahoma
TTITLE4=Wagons West
TTITLE5=The Auctioneer
TTITLE6=(Ghost) Riders In The Sky
TTITLE7=Drifter
TTITLE8=Cowboy Jubilee
TTITLE9=Ridin' Down The Canyon
TTITLE10=Song Of The Bandit
TTITLE11=An American Hero
EXTD=
EXTT0=
EXTT1=
EXTT2=
EXTT3=
EXTT4=
EXTT5=
EXTT6=
EXTT7=
EXTT8=
EXTT9=
EXTT10=
EXTT11=
PLAYORDER=
